<svg t="1685954034350" class="icon" viewBox="0 0 1024 1024" version="1.1" xmlns="http://www.w3.org/2000/svg" p-id="9587" width="32" height="32"><path d="M704 608h-36.864c-11.072 37.216-40.352 64-75.136 64h-160c-34.784 0-64.064-26.784-75.104-64H0v288a96 96 0 0 0 96 96h832a96 96 0 0 0 96-96v-288H704zM928 192h-128v-16C800 96.48 757.024 32 704 32H320C266.976 32 224 96.48 224 176V192H96a96 96 0 0 0-96 96v256h356.896c11.008-37.216 40.32-64 75.104-64h160c34.784 0 64.096 26.784 75.136 64H1024V288a96 96 0 0 0-96-96zM288 192V96h448v96H288z" p-id="9588"></path></svg>